Coordinates
version=1
nRows=4
nColumns=107
inDegrees=yes

Units are S.I. units (second, meters, Newtons, ...)
If the header above contains a line with 'inDegrees', this indicates whether rotational values are in degrees (yes) or radians (no).

endheader
time	sternoclavicular_r2	sternoclavicular_r3	unrotscap_r3	unrotscap_r2	acromioclavicular_r2	acromioclavicular_r3	acromioclavicular_r1	unrothum_r1	unrothum_r3	unrothum_r2	elv_angle	shoulder_elv	shoulder1_r2	shoulder_rot	elbow_flexion	pro_sup	deviation	flexion	proximal_distal_r1	proximal_distal_r3	cmc_flexion	cmc_abduction	mp_flexion	ip_flexion	mcp2_flexion	mcp2_abduction	pm2_flexion	md2_flexion	mcp3_flexion	mcp3_abduction	pm3_flexion	md3_flexion	mcp4_flexion	mcp4_abduction	pm4_flexion	md4_flexion	mcp5_flexion	mcp5_abduction	pm5_flexion	md5_flexion	bicpt_tx	bicpt_ty	bicpt_tz	bicpt2_tx	bicpt2_ty	bicpt2_tz	ptpt_tx	ptpt_ty	ptpt_tz	FCUpt_tx	FCUpt_ty	FCUpt_tz	EDCpt_tx	EDCpt_ty	EDCpt_tz	APLpt_tx	APLpt_ty	APLpt_tz	FPLpt_tx	FPLpt_ty	FPLpt_tz	FPLpt2_tx	FPLpt2_ty	FPLpt2_tz	PEC1pt2_tx	PEC1pt2_ty	PEC1pt2_tz	PEC1pt3_tx	PEC1pt3_ty	PEC1pt3_tz	PEC2pt2_tx	PEC2pt2_ty	PEC2pt2_tz	PEC2pt3_tx	PEC2pt3_ty	PEC2pt3_tz	PEC3pt2_tx	PEC3pt2_ty	PEC3pt2_tz	PEC3pt3_tx	PEC3pt3_ty	PEC3pt3_tz	DELT2pt2a_tx	DELT2pt2a_ty	DELT2pt2a_tz	DELT2pt2_tx	DELT2pt2_ty	DELT2pt2_tz	LAT1pt2_tx	LAT1pt2_ty	LAT1pt2_tz	LAT1pt3_tx	LAT1pt3_ty	LAT1pt3_tz	LAT2pt2_tx	LAT2pt2_ty	LAT2pt2_tz	LAT2pt3_tx	LAT2pt3_ty	LAT2pt3_tz	LAT3pt2_tx	LAT3pt2_ty	LAT3pt2_tz	LAT3pt3_tx	LAT3pt3_ty	LAT3pt3_tz
      0.63333333	     -0.32414918	      0.13729429	     -0.13729429	      0.32414918	     -0.06563361	      0.53042779	      0.23842364	     -0.23842364	     -0.53042779	      0.06563361	     96.69841370	     76.74519900	     -1.68770570	    -19.96859104	     31.73590387	     37.36396815	      0.20520146	     -0.96584677	      0.24402190	     -0.48292339	     18.10134691	      0.57309276	    -42.71495525	    -70.27754633	     96.74923395	     13.08044784	     79.40897769	     21.03226545	     94.45823460	      3.53547650	     83.06105644	     43.19030792	     91.69680836	    -12.98988153	     88.91666257	     29.12595061	     97.85726658	    -14.01436034	     74.98058748	      5.75365598	      0.00094973	     -0.03123742	     -0.00488589	      0.01656153	     -0.01882121	     -0.00774656	      0.00478922	     -0.06668516	     -0.00305987	      0.00751592	     -0.18354891	     -0.00036509	     -0.00448367	      0.00127408	      0.00016346	      0.00020697	      0.00008279	      0.00041394	      0.00026492	      0.00079477	      0.00044706	      0.00001650	     -0.00027050	     -0.00032460	      0.00251554	      0.00882571	      0.00613962	     -0.00822880	      0.01986850	     -0.01884523	      0.00251554	      0.00882571	      0.00613962	      0.00055427	      0.01841886	     -0.00967843	      0.00396977	      0.00490786	      0.01602075	      0.00000000	      0.00787768	      0.00000000	     -0.00720553	     -0.03329892	     -0.00649605	      0.01375812	     -0.00043097	     -0.00328729	     -0.00089536	      0.01500796	     -0.00613962	      0.00247290	      0.02165922	     -0.01790723	     -0.00601171	      0.01300406	     -0.00550008	     -0.01253506	      0.02745775	     -0.03074074	     -0.02353521	      0.01453896	     -0.00737607	     -0.01560487	      0.03172138	     -0.03841527
      0.66666667	     -0.32377643	      0.13713642	     -0.13713642	      0.32377643	     -0.06555814	      0.52981784	      0.23814947	     -0.23814947	     -0.52981784	      0.06555814	     96.76922890	     76.65694831	     -1.68894166	    -20.35042410	     31.77231651	     37.80453880	      0.20669291	     -0.95837482	      0.24554315	     -0.47918741	     18.13549264	      0.50879104	    -42.70294817	    -70.28366007	     96.75960055	     13.09370997	     79.49266396	     20.65982822	     94.46275203	      3.37876150	     82.84217786	     41.89876414	     91.74931066	    -12.98359787	     88.84562130	     29.86216726	     98.07599818	    -14.01757619	     74.14781174	      5.73762844	      0.00095093	     -0.03124159	     -0.00488657	      0.01656480	     -0.01883111	     -0.00770102	      0.00475667	     -0.06670621	     -0.00309536	      0.00755994	     -0.18354005	     -0.00036902	     -0.00453653	      0.00129168	      0.00016088	      0.00021137	      0.00008455	      0.00042274	      0.00027056	      0.00081167	      0.00045656	      0.00001641	     -0.00027069	     -0.00032483	      0.00251265	      0.00881556	      0.00613256	     -0.00821934	      0.01984565	     -0.01882356	      0.00251265	      0.00881556	      0.00613256	      0.00055363	      0.01839768	     -0.00966730	      0.00396644	      0.00490222	      0.01601270	      0.00000000	      0.00785944	      0.00000000	     -0.00719724	     -0.03326063	     -0.00648091	      0.01397766	     -0.00044272	     -0.00342078	     -0.00089433	      0.01499070	     -0.00613256	      0.00247006	      0.02163431	     -0.01788664	     -0.00600480	      0.01298910	     -0.00549375	     -0.01252065	      0.02742618	     -0.03070539	     -0.02350815	      0.01452225	     -0.00736759	     -0.01558693	      0.03168490	     -0.03837109
      0.70000000	     -0.32216913	      0.13645564	     -0.13645564	      0.32216913	     -0.06523269	      0.52718769	      0.23696724	     -0.23696724	     -0.52718769	      0.06523269	     97.08098332	     76.27640442	     -1.69438280	    -22.01530494	     31.87604480	     39.46396377	      0.20261707	     -0.94871435	      0.24137718	     -0.47435718	     18.16868385	      0.41088518	    -42.71526387	    -70.29439014	     96.70020335	     13.10954244	     79.40059895	     21.45849141	     94.47307412	      3.28574775	     82.62673102	     41.72604912	     91.80530988	    -12.94004229	     88.96575266	     30.98052972	     98.06849198	    -14.01430268	     73.82479852	      5.72202139	      0.00095436	     -0.03125348	     -0.00488848	      0.01657308	     -0.01885928	     -0.00752705	      0.00463406	     -0.06678550	     -0.00322903	      0.00772631	     -0.18350617	     -0.00038251	     -0.00473566	      0.00135848	      0.00015019	      0.00021691	      0.00008677	      0.00043383	      0.00027765	      0.00083295	      0.00046854	      0.00001633	     -0.00027085	     -0.00032501	      0.00250017	      0.00877179	      0.00610212	     -0.00817853	      0.01974713	     -0.01873011	      0.00250017	      0.00877179	      0.00610212	      0.00055089	      0.01830635	     -0.00961931	      0.00395208	      0.00487788	      0.01597775	      0.00000000	      0.00778106	      0.00000000	     -0.00716151	     -0.03309551	     -0.00641585	      0.01491205	     -0.00049462	     -0.00402934	     -0.00088989	      0.01491629	     -0.00610212	      0.00245780	      0.02152691	     -0.01779784	     -0.00597499	      0.01292462	     -0.00546648	     -0.01245849	      0.02729003	     -0.03055296	     -0.02339145	      0.01445015	     -0.00733102	     -0.01550955	      0.03152761	     -0.03818061
      0.73333333	     -0.32557334	      0.13789750	     -0.13789750	      0.32557334	     -0.06592198	      0.53275824	      0.23947116	     -0.23947116	     -0.53275824	      0.06592198	     96.41815611	     77.08238212	     -1.68281428	    -18.48013072	     31.67189480	     35.79157434	      0.20713826	     -0.97059210	      0.24599689	     -0.48529605	     17.88160389	      0.28395324	    -42.66071041	    -70.24548464	     96.38331264	     13.07699969	     79.71222212	     21.83230395	     94.23274430	      2.99608860	     82.71071647	     40.33973047	     91.60519975	    -12.97496082	     89.01715711	     30.53104388	     98.31642035	    -14.01730381	     73.12023382	      5.72172164	      0.00094761	     -0.03123008	     -0.00488471	      0.01654630	     -0.01880383	     -0.00790688	      0.00490541	     -0.06661004	     -0.00293320	      0.00735927	     -0.18358010	     -0.00034988	     -0.00429498	      0.00121178	      0.00017184	      0.00020413	      0.00008165	      0.00040826	      0.00026129	      0.00078386	      0.00044092	      0.00001703	     -0.00026940	     -0.00032328	      0.00252659	      0.00886448	      0.00616660	     -0.00826495	      0.01995579	     -0.01892802	      0.00252659	      0.00886448	      0.00616660	      0.00055671	      0.01849979	     -0.00972095	      0.00398244	      0.00492943	      0.01605136	      0.00000000	      0.00794755	      0.00000000	     -0.00723719	     -0.03344522	     -0.00655405	      0.01288377	     -0.00038572	     -0.00278902	     -0.00089930	      0.01507390	     -0.00616660	      0.00248377	      0.02175438	     -0.01798590	     -0.00603813	      0.01306119	     -0.00552424	     -0.01259013	      0.02757839	     -0.03087580	     -0.02363862	      0.01460284	     -0.00740848	     -0.01567343	      0.03186074	     -0.03858405
